PathFileType	4	(X/Y/Z)	D:\TRACE\v60_Jaco2_6-2-23\BothDRS_Motion3_5-v60.trc
DataRate	CameraRate	NumFrames	NumMarkers	Units	OrigDataRate	OrigDataStartFrame	OrigNumFrames
100.00	100.00	      20	9	mm	100.00	2626	      7000
Frame#	Time	front left toe			Front right toe			aft left toe			aft right toe			Arm			FL body			FR body			AL Body			AR Body			
		X1	Y1	Z1	X2	Y2	Z2	X3	Y3	Z3	X4	Y4	Z4	X5	Y5	Z5	X6	Y6	Z6	X7	Y7	Z7	X8	Y8	Z8	X9	Y9	Z9	

2626	26.250	-135.23161	39.74978	-154.14888	264.39719	40.81417	-180.07379	-94.56888	-34.66379	452.61636	241.73933	-34.10071	466.42459	102.23505	1156.73755	-462.96881	-13.61269	549.27991	-322.85599	145.16254	546.11292	-323.25650	-4.05368	489.91751	620.17499	147.74925	477.43420	618.38513	
2627	26.260	-135.42426	38.45614	-153.24498	264.01855	40.63752	-180.07497	-94.47674	-34.37674	452.70313	241.12541	-33.93502	465.56342	103.01652	1156.84375	-463.44131	-13.33768	549.42017	-322.69101	145.35664	546.31079	-322.88385	-5.54474	491.03787	620.30426	145.88547	478.77023	618.83923	
2628	26.270	-135.05629	37.01268	-153.17349	264.96149	42.13863	-179.84615	-94.56183	-33.65882	451.82944	240.72653	-31.95690	467.63684	103.58378	1157.00098	-464.24451	-12.96242	550.58563	-322.44229	145.53265	547.01807	-322.53461	-7.17295	492.07010	620.49237	145.25943	479.68594	619.36871	
2629	26.280	-135.45033	37.13318	-153.18384	261.21448	44.76780	-179.95825	-94.86661	-30.47103	452.08105	240.31386	-33.78321	467.63940	104.29474	1156.69812	-465.24744	-12.59198	551.68530	-322.18921	145.43515	548.02808	-321.76462	-8.00480	492.30380	620.49872	143.22179	479.80725	619.74005	
2630	26.290	-135.37303	36.87122	-153.42490	256.59528	48.09704	-176.73938	-92.25927	-27.33014	454.44315	240.78185	-33.60356	467.03049	104.87822	1156.24341	-465.18320	-12.18071	552.84503	-322.11096	146.16496	549.36151	-321.68829	-9.82714	492.25485	620.65167	142.01697	479.66562	619.93695	
2631	26.300	-135.53925	36.62831	-153.69527	253.31631	56.11216	-174.65567	-89.91233	-18.25873	455.24210	240.72932	-33.60622	467.15689	105.77853	1156.93140	-464.08075	-11.83113	553.26929	-322.14465	146.79936	549.56427	-321.41843	-10.89098	492.21362	620.38800	140.94464	479.68619	620.09784	
2632	26.310	-135.73544	36.36366	-154.08913	251.52069	65.24745	-173.74922	-88.31596	-8.07283	455.87109	240.49474	-33.24805	467.20889	106.47392	1158.29382	-462.79294	-11.59178	553.03424	-322.12851	146.94693	549.36963	-321.25262	-12.14142	492.59146	620.38776	139.76744	480.10284	620.37207	
2633	26.320	-135.85846	36.13303	-153.66031	252.03664	78.02600	-173.51584	-88.25410	4.33877	455.20349	240.42155	-33.13190	467.18527	107.22404	1160.02002	-461.42923	-11.41581	552.53522	-322.05228	146.61554	549.06360	-320.74167	-12.69104	492.53592	620.31189	138.94281	480.42236	620.59967	
2634	26.330	-135.82051	35.67268	-153.86125	254.01132	90.57431	-173.34167	-91.62525	17.36104	454.51358	240.45628	-33.16932	467.19406	107.77299	1160.94580	-460.29782	-11.30716	552.08826	-321.87039	146.85144	548.60834	-320.04266	-13.34193	492.20197	620.54510	138.30688	479.85165	620.81708	
2635	26.340	-135.80943	35.57043	-153.89648	256.95251	103.90146	-172.23804	-95.42501	29.50714	454.75302	240.50174	-33.26667	467.24799	108.16821	1160.74988	-459.49936	-11.10941	552.00470	-321.60950	146.83553	548.65918	-319.94617	-14.24380	491.37051	620.85834	138.62459	479.16696	621.25232	
2636	26.350	-135.86258	35.44476	-153.91261	259.01166	117.14324	-170.68118	-99.95178	41.88817	454.64261	240.64931	-33.29334	467.29327	108.12836	1160.06348	-458.87076	-10.87789	552.10907	-321.31747	147.28090	548.65363	-319.71698	-14.13643	490.43686	621.36444	138.17932	478.28076	621.71655	
2637	26.360	-135.79803	35.39074	-153.93433	260.05243	129.24683	-169.05362	-103.57819	53.81593	454.62796	240.82701	-33.20473	467.27554	107.84901	1159.07654	-458.73801	-10.48803	552.07117	-320.78278	147.63850	548.66846	-319.00790	-14.38690	489.37317	621.66388	137.56966	477.27777	622.16589	
2638	26.370	-135.77354	35.39889	-154.02342	261.84930	141.30493	-166.81207	-106.37794	65.08900	454.85626	240.85484	-33.12560	467.41104	107.51517	1158.26563	-458.69501	-9.91660	551.96771	-320.27701	148.17978	548.71094	-318.28625	-14.34224	488.67044	622.08868	137.60854	476.39883	622.64954	
2639	26.380	-135.78867	35.32242	-154.18575	261.77750	151.32674	-165.39401	-108.14141	75.81728	454.99359	240.96004	-32.92775	467.48477	106.98502	1157.83350	-458.39975	-9.28039	551.82831	-319.87292	149.24889	548.71997	-318.11340	-14.57384	488.39160	622.52155	137.27733	476.06387	623.26233	
2640	26.390	-135.77342	35.13046	-154.32724	264.06506	161.34044	-163.09329	-109.53279	85.51253	455.14713	241.03702	-32.54093	467.61411	106.78934	1157.68481	-457.79324	-8.98672	551.38239	-319.69080	149.75227	548.21033	-317.67249	-14.89754	488.10611	622.98053	136.91272	476.12061	623.86749	
2641	26.400	-135.66017	34.93705	-154.27817	266.35010	168.63948	-160.63394	-111.32455	93.39427	455.79971	241.07266	-32.23661	467.69247	106.75600	1157.68262	-456.92654	-8.34135	550.73187	-318.93930	149.93233	547.61969	-316.59149	-15.17960	487.99799	623.72424	136.72897	476.03845	624.44543	
2642	26.410	-135.50481	34.82477	-154.19714	267.78131	171.52280	-157.85640	-113.82105	97.42465	457.47714	241.11909	-32.11596	467.76010	107.24332	1157.80750	-456.17477	-8.06153	550.19470	-318.47003	150.28041	547.09955	-316.07346	-14.88797	487.84360	624.10394	136.91431	476.18637	625.09259	
2643	26.420	-135.35909	34.81044	-154.24791	270.56027	172.32863	-154.07617	-116.22443	98.87316	459.38385	241.22704	-31.92894	467.84680	108.15892	1157.66760	-455.55240	-7.70164	550.02295	-317.95987	150.99513	546.99078	-315.67661	-14.56759	487.94199	624.76807	136.99019	476.25977	625.89270	
2644	26.430	-135.30878	34.87944	-154.37820	271.96960	169.80342	-150.68491	-118.79337	96.82055	461.50214	241.23271	-31.88599	467.85538	108.82367	1157.51428	-455.01733	-7.31650	549.78369	-317.36755	151.32355	546.88037	-315.10199	-14.58383	487.94116	625.11670	137.47148	476.47125	626.39575	
2645	26.440	-135.33711	34.88461	-154.45117	272.71414	165.70827	-147.63051	-120.21126	93.07582	463.87125	240.83409	-32.84726	466.95450	109.46002	1157.14673	-454.68192	-7.07493	549.59052	-316.68927	151.50491	546.81525	-314.43103	-14.44199	488.22461	626.07312	137.55840	476.48090	627.06140	
